<?xml version="1.0" encoding="utf-8"?>
<!-- Generator: Adobe Illustrator 15.0.0, SVG Export Plug-In . SVG Version: 6.00 Build 0)  -->
<!DOCTYPE svg PUBLIC "-//W3C//DTD SVG 1.1//EN" "http://www.w3.org/Graphics/SVG/1.1/DTD/svg11.dtd">
<svg version="1.1" id="Layer_1" xmlns="http://www.w3.org/2000/svg" xmlns:xlink="http://www.w3.org/1999/xlink" x="0px" y="0px"
	 width="301.742px" height="398.75px" viewBox="0 0 301.742 398.75" enable-background="new 0 0 301.742 398.75"
	 xml:space="preserve">
<g id="Layer_X">
	<g id="change1">
		<path fill="#6AA7DB" d="M224.07,207.45c-25.928,31.127-64.342,47.022-104.682,43.352c-40.743-3.709-76.421-30.572-94.266-66.792
			C7.521,148.281,10.83,105.042,31.101,71.261c20.9-34.829,59.499-55.715,99.75-56.467c45.905-0.858,87.917,26.657,107.995,67.408
			C258.758,122.616,251.98,172.604,224.07,207.45c-5.409,6.756,4.125,16.42,9.594,9.592c24.486-30.573,34.479-68.698,28.079-107.349
			c-6.39-38.595-31.565-72.29-65.195-91.604C163.355-0.975,122.247-3.597,86.466,9.333C49.481,22.699,20.924,52.769,7.517,89.454
			c-21.821,59.711,5.588,127.477,59.902,158.671c54.795,31.469,126.211,16.976,166.245-31.084
			C239.218,210.372,229.678,200.721,224.07,207.45z"/>
		<path fill="#6AA7DB" d="M256.982,152.542C201.366,107.114,145.751,61.686,90.136,16.258c-6.713-5.483-16.371,4.054-9.593,9.591
			c55.617,45.428,111.232,90.856,166.848,136.284C254.105,167.616,263.762,158.079,256.982,152.542L256.982,152.542z"/>
		<path fill="#6AA7DB" d="M33.805,61.621c61.145,49.945,122.289,99.889,183.431,149.833c0.334,0.271,0.666,0.543,0.996,0.814
			c6.713,5.482,16.371-4.055,9.595-9.592c-61.146-49.944-122.289-99.888-183.434-149.833c-0.332-0.271-0.665-0.542-0.997-0.812
			C36.683,46.547,27.026,56.084,33.805,61.621L33.805,61.621z"/>
		<path fill="#6AA7DB" d="M5.746,112.652c56.807,46.403,113.614,92.804,170.422,139.206c6.713,5.482,16.371-4.055,9.594-9.592
			c-56.811-46.402-113.618-92.804-170.425-139.205C8.624,97.578-1.033,107.115,5.746,112.652L5.746,112.652z"/>
		<path fill="#6AA7DB" d="M100.864,256.961c75.898-29.183,138.714-101.795,145.812-184.245c0.749-8.72-12.82-8.647-13.566,0
			c-3.248,37.749-21.807,77.89-46.568,106.936c-16.807,19.712-37.496,35.881-59.652,49.145c-9.159,5.484-21.26,11.865-29.629,15.084
			C89.181,246.988,92.687,260.107,100.864,256.961L100.864,256.961z"/>
		<path fill="#6AA7DB" d="M162.213,8.722C88.688,38.711,29.136,111.736,16.795,190.458c-1.34,8.554,11.729,12.228,13.08,3.605
			C35.732,156.696,53.566,119.238,77.1,89.98c16.406-20.398,36.688-37.599,58.642-51.739c6.995-4.507,14.244-8.63,21.652-12.416
			c2.328-1.189,4.688-2.319,7.064-3.407c0.975-0.445,3.607-1.535,1.357-0.617C173.807,18.544,170.314,5.417,162.213,8.722
			L162.213,8.722z"/>
		<path fill="#6AA7DB" d="M57.429,232.663c51.213-62.697,102.428-125.394,153.641-188.092c0.91-1.114,1.82-2.227,2.729-3.34
			c5.482-6.713-4.055-16.37-9.593-9.591c-51.213,62.697-102.427,125.395-153.64,188.093c-0.91,1.113-1.82,2.227-2.729,3.34
			C42.353,229.786,51.892,239.442,57.429,232.663L57.429,232.663z"/>
		<path fill="#6AA7DB" d="M23.746,264.543c61.068,49.135,149.537,51.91,212.074,3.517c63.105-48.832,83.229-135.388,50.229-207.552
			c-10.421-22.786-26.596-42.894-45.825-58.837c-6.681-5.538-16.332,4.002-9.592,9.591c63.192,52.396,76.18,144.485,29.51,212.128
			c-46.682,67.657-140.991,85.262-210.388,43.173c-5.734-3.479-11.195-7.409-16.417-11.609
			C26.592,249.524,16.929,259.059,23.746,264.543L23.746,264.543z"/>
		<path fill="#6AA7DB" d="M123.694,301.909c0,18.59,0,37.18,0,55.771c0,8.747,13.566,8.747,13.566,0c0-18.591,0-37.181,0-55.771
			C137.26,293.161,123.694,293.161,123.694,301.909L123.694,301.909z"/>
		<path fill="#6AA7DB" d="M226.559,351.268c-61.543,0-123.086,0-184.628,0c-2.333,0-4.724,1.281-5.856,3.361
			c-6.154,11.306-12.309,22.611-18.464,33.916c-2.437,4.479,0.597,10.205,5.857,10.205c73.852,0,147.707,0,221.559,0
			c5.26,0,8.295-5.728,5.857-10.205c-6.156-11.305-12.311-22.61-18.467-33.916c-4.184-7.686-15.896-0.84-11.713,6.845
			c6.154,11.306,12.312,22.61,18.466,33.916c1.952-3.399,3.905-6.804,5.856-10.205c-73.853,0-147.708,0-221.56,0
			c1.952,3.401,3.904,6.806,5.856,10.205c6.154-11.306,12.309-22.61,18.463-33.916c-1.953,1.12-3.904,2.239-5.856,3.36
			c61.542,0,123.086,0,184.629,0C235.309,364.834,235.309,351.268,226.559,351.268z"/>
	</g>
</g>
</svg>
