<?xml version="1.0" encoding="UTF-8"?><!-- Generator: Adobe Illustrator 21.0.2, SVG Export Plug-In . SVG Version: 6.00 Build 0)  --><svg xmlns="http://www.w3.org/2000/svg" enable-background="new 0 0 600 452.2" height="452.2px" id="Layer_1" version="1.1" viewBox="0 0 600 452.2" width="600px" x="0px" xml:space="preserve" y="0px">
<g id="change1">
	<path d="m114.3 231.2c-1.2 0.5-2.5 1-3.7 1.5-0.9 0.3-6.8 2-12 3.5-4.3 1.2-8.1 2.3-8.1 2.3-35.2 9.3-55.7 6.4-68.2-13.4-3.2-5.1-14.2-43.2-21.4-69-3.7-13.1 4-26.7 17.2-30.4l52.7-14.5c7.4-2 9.9 1.3 15.5 6.5l-28.1-102.7c-0.8-2.7-0.1-5.6 2-7.9 10.2-11.5 25.5-7.8 28.3 2.3l51.5 182.1c4.3 14.1-6.2 31.1-25.7 39.7z" fill="#35B9C5"/>
</g>
<g id="change2">
	<path d="m57.7 202.9c-0.7 1.8-1.7 3.9-3.3 5.7-1.6 1.7-3.4 3.3-6 4-2.3 0.7-4.7 0-6.1-0.7-2.1-1.1-3.6-3.1-4.4-5.1-2.6-6.3-1.1-15.9 4.1-21.4 1.2-1.3 2.6-2.1 4.1-2.5 3-0.8 5.8 0.7 6.8 3.1 0.9 2.2 0.6 4.4-1.6 6.4-1.1 1-1.8 1.2-2 0.9-0.2-0.2-0.2-0.5 0-0.8 1.8-2.7 1.4-4.3 0.5-6.5-0.6-1.4-1.8-2.1-2.9-1.8-4.7 1.3-8.5 13.7-5.4 21 1.2 2.9 4 5.8 7.7 4.7 1.2-0.4 2.5-1.1 3.5-2 2.2-2.1 3.1-3.4 4.1-5.9 0.1-0.3 0.2-0.7 0.4-1.1 0.1-0.3 0.3-0.5 0.5-0.5 0.2-0.1 0.5 0.1 0.6 0.4 0.1 0.2 0.1 0.6-0.1 1-0.2 0.3-0.4 0.7-0.5 1.1m8.1 1.8c1.4-0.4 4.6-3.6 5.7-6.7 0.2-0.6 0.2-0.9 0.1-1.2s-0.4-0.3-0.6-0.3c-0.2 0.1-0.5 0.3-0.5 0.5-1 2.6-3.3 5-3.9 5.2-0.5 0.1-0.8-0.2-0.9-0.5s-0.2-2.1-0.2-2.7c0-0.2-0.1-0.4-0.1-0.6-0.2-0.4-0.5-0.5-1-0.4-0.8 0.2-1.7 1.3-1.7 2.6 0 1.8-0.8 3.3-1.6 3.6-1 0.3-1.9-0.6-2.3-1.7-1-2.3-0.5-6.7 2.3-7.5 0.8-0.2 1.7-0.2 2 0.6 0.5 1.2-0.8 1.2-0.6 1.8 0.2 0.5 1.1 0.4 1.7 0.2s2.2-1 1.4-2.9c-0.6-1.5-2.5-1.8-4.4-1.3-4.6 1.3-6.4 6.8-4.9 10.2 0.8 2 3 3 4.7 2.5 1.1-0.3 2-1.1 2.5-2.4 0.3 0.9 1.2 1.3 2.3 1m38.4-12.2c-0.2-0.5-0.4-1.2-0.4-2-0.1-2-0.1-2.5-0.2-2.7-0.2-0.5-0.6-0.6-1-0.4-0.8 0.2-1.7 1.4-1.7 2.6 0 1.8-0.9 3.4-1.7 3.6-1 0.3-1.8-0.7-2.3-1.8-1.1-2.7-0.3-6.7 2.3-7.4 0.8-0.2 1.7-0.1 2 0.6 0.5 1.2-0.9 1.3-0.7 1.7 0.2 0.5 1.1 0.4 1.7 0.2s2.2-1 1.4-3c-0.6-1.5-2.5-1.8-4.4-1.2-4.5 1.3-6.4 6.8-5 10.2 0.8 2 3 3 4.8 2.5 1.1-0.3 1.9-1.1 2.4-2.3 0.6 1.2 1.8 2.4 4.1 2.6h0.4c0.4-0.1 0.6-0.5 0.4-0.8 0-0.1-0.2-0.3-0.4-0.4-0.5-0.3-1.3-0.9-1.7-2m-24.5 6.1c-0.8 0.2-1.1-0.4-1.1-0.8-0.1-2.1-0.2-4.5 0-6.2 0.1-0.8 0-1.5-0.2-1.9-0.3-0.7-0.9-0.9-1.6-0.7-1.6 0.4-3.7 2.8-4.8 5.5l-0.1-2.6c0-0.2-0.1-0.4-0.1-0.6-0.2-0.5-0.5-0.6-0.9-0.5-1.9 0.5-2 1.6-1.9 2.6 0 0.4 0.7 8.8 0.7 8.8 0 0.2 0.1 0.4 0.1 0.6 0.2 0.4 0.5 0.5 0.9 0.4 0.8-0.2 1.8-1.3 1.7-2.6l-0.1-1.8c-0.1-2.3 2.1-6.4 3-6.7 0.1 0 0.2 0 0.3 0.2 0.2 0.5-0.3 2.6 0 5.6 0.1 0.6 0.2 1.1 0.4 1.5 0.5 1.2 1.5 1.9 2.9 1.5s4.1-2.5 5.2-5.6c0.2-0.6 0.3-1 0.2-1.2-0.1-0.3-0.4-0.4-0.6-0.3s-0.4 0.2-0.5 0.5c-1.1 2.8-2.9 4.1-3.5 4.3m12.1-7.1c1.4-0.4 2.9-2 3.4-3.9 0.1-0.2 0-0.4 0-0.6-0.1-0.2-0.2-0.3-0.4-0.3-0.3 0.1-0.5 0.4-0.7 0.8-0.3 0.6-0.9 1.3-1.9 1.6-0.1 0-0.4 0.1-0.4 0.1 0.3-1.5 0.4-2.9 0.1-4.1-0.5-1.9-2-2.5-3.2-2.1-1.6 0.5-2.9 2.4-2.1 5.2 0.5 1.7 1.5 2.9 2.9 3.3-0.7 2.6-2 4.9-2.3 4.9-0.2 0-0.2-0.1-0.3-0.2-0.4-0.7-1-2.1-1.3-3-0.4-1.6-0.6-3.3-0.5-5.2v-0.6c-0.1-0.5-0.5-0.6-0.9-0.5-0.9 0.2-1.9 1.6-1.9 2.7s0.2 2.4 0.7 4.1c0.6 2.2 1.5 4.3 2.4 5.2 0.2 0.2 0.6 0.2 0.9 0.1 0.4-0.1 0.9-0.4 1.4-0.9 1.2-1.2 2.5-3.4 3.6-6.5 0 0 0.2-0.1 0.5-0.1m-4-5.2c-0.2-0.6-0.2-1.3 0.3-1.5 0.4-0.1 1.2 0.3 1.5 1.8 0.2 0.7 0.3 1.5 0.2 2.3-0.9-0.5-1.7-1.5-2-2.6m-49.8-11l1.6-14.5h0.1c0.1 0.8 0.3 1.6 0.5 2.3l3 10.7 1-0.3-4-14.1-1.5 0.4-1.5 13.8h-0.1l-8.5-11-1.5 0.4 4 14.1 0.9-0.3-3-10.6c-0.2-0.8-0.5-1.6-0.8-2.4h0.1l8.9 11.5h0.8zm17-4.7l-2-7c-0.4-1.3-0.9-2.1-1.6-2.5s-1.7-0.5-2.8-0.2-2.2 0.9-3.2 1.8l0.6 0.7c0.9-0.8 1.8-1.4 2.8-1.7 0.9-0.3 1.6-0.2 2.2 0.2s1 1.1 1.2 2.1l0.2 0.7-2 0.6c-1.6 0.5-2.7 1.1-3.4 1.9s-0.9 1.7-0.6 2.7c0.3 0.9 0.8 1.6 1.5 2s1.6 0.4 2.6 0.1c0.8-0.2 1.4-0.5 1.8-1 0.5-0.4 0.9-1.1 1.2-1.9h0.1l0.7 1.6 0.7-0.1zm-6.6 0.5c-0.5-0.3-0.8-0.7-1-1.4-0.2-0.8-0.1-1.5 0.4-2.1s1.5-1.1 3-1.6l1.8-0.6 0.3 1c0.3 1.1 0.2 2.1-0.2 2.9-0.5 0.8-1.3 1.4-2.4 1.7-0.8 0.4-1.4 0.4-1.9 0.1zm7.9-10.9c-0.5 1.2-0.5 2.7 0 4.5 0.5 1.7 1.2 2.9 2.2 3.6s2.2 0.8 3.7 0.4 2.5-1.3 2.9-2.8h0.1l0.7 1.5 0.6-0.2-4.2-15-0.9 0.3 1.1 3.8c0.2 0.8 0.5 1.6 0.7 2.4h-0.1c-0.6-0.5-1.3-0.9-1.9-1s-1.3-0.1-2.1 0.1c-1.3 0.5-2.3 1.3-2.8 2.4zm6.1-1.1c0.7 0.6 1.3 1.6 1.8 3.3v0.2c0.4 1.6 0.5 2.8 0.1 3.6s-1.1 1.4-2.3 1.8c-2.3 0.6-3.9-0.5-4.7-3.5-0.4-1.5-0.5-2.8-0.1-3.7 0.4-1 1.1-1.6 2.2-1.9 1.3-0.5 2.2-0.4 3 0.2zm13.6 5.6c0.5-0.2 1-0.6 1.5-1l-0.2-0.9c-0.6 0.5-1.1 0.8-1.6 1-0.4 0.2-0.9 0.4-1.5 0.6-1.2 0.3-2.3 0.2-3.1-0.3-0.9-0.6-1.5-1.6-1.9-3l7.5-2.1-0.2-0.8c-0.4-1.5-1.1-2.5-2.1-3.2s-2.1-0.8-3.3-0.5c-1.4 0.4-2.4 1.2-2.9 2.4s-0.6 2.7-0.1 4.4 1.3 2.9 2.4 3.6 2.4 0.8 4 0.4l1.5-0.6zm-2.2-8.9c0.7 0.5 1.3 1.4 1.6 2.6l-6.5 1.8c-0.2-1.3-0.2-2.3 0.3-3.2 0.4-0.8 1.1-1.4 2.1-1.7 0.9-0.2 1.8-0.1 2.5 0.5zm9.2-6.6c0.2-0.1 0.3-0.2 0.4-0.4s0.1-0.4 0-0.7-0.2-0.5-0.4-0.6-0.3-0.2-0.5-0.1c-0.4 0.1-0.5 0.5-0.3 1.1 0.1 0.6 0.4 0.9 0.8 0.7zm1.1 1.9l-1 0.3 2.9 10.5 1-0.3-2.9-10.5zm14.7 7.1l-1.9-6.8c-0.7-2.6-2.3-3.5-4.6-2.8-1.7 0.5-2.8 1.4-3.2 2.7h-0.1l-0.6-1.4-0.8 0.2 2.9 10.5 1-0.3-1.6-5.8c-0.4-1.4-0.4-2.5 0-3.3s1.2-1.4 2.5-1.7c0.9-0.3 1.7-0.2 2.3 0.1s1 1.1 1.3 2.1l1.9 6.8 0.9-0.3z" fill="#fff"/>
</g>
<g id="x">
	<path d="m519 269.8c-8.2-8.9-3.5-44.7-5-51.9-2.8-13-9.6-24.5-18.7-34.2 7.2 5.8 15.1 14 22.5 30.1 1.4-18.6-4.2-35.9-13-50.2 8.8 7.8 13.7 14.7 13.7 14.7-8.5-34.4-19.3-42.4-33.7-50.3 8.3 3 16 7.8 23.1 15.6-9.1-30.3-21.6-41-39.5-44.8 7.8 0.1 16.1 1.6 24.2 7.1-3.7-7.6-10.5-13.5-18.6-17.5 3.4-0.1 6.3-0.8 8.3-2.9-6.4-0.6-14.2-11.9-22.3-16.1-3.8-2-11.8-4.2-20.4-4.2 5.1-3 10.6-5.2 16.8-7-12.2-7.1-24.4-6.3-35.1-1.7 0.3-9.6-1.3-19.7-4.5-23.2-4.9 8.5-16.3 13.4-34.4 14.6 3.8-7.8 9.1-15.8 22.4-19.3-20.5-4-49.5 2.4-67.9 12.9 4.7-11.8 7.4-22.3 8.3-27-7.1 6.6-23.7 15.7-38 22.6 0.8-5.6 3.9-10.7 11.2-15.1-22.4 1.7-39.4 11.2-51.3 21.7-0.5-8.3 1.7-14.6 8-16.8-21 2.8-32.9 13.5-39.7 22-4.3-4.5-7.8-9.4-9.2-15-1.4 5-3.3 12.3-3.3 18.6-8-4.2-18-4.7-30.4 2.5 8.2 2.4 15.2 5.4 21.6 10.2-6.9 0.6-12.9 2.4-16.1 4-8.2 4.3-16 15.6-22.3 16.1 2.8 2.9 7.3 3.3 12.6 2.7-6.4 3.9-12 9.3-15.4 16.3 8.6-5.8 16.4-7 23.4-6.7v0.1c-21.4 2.6-35.6 12.1-45.7 45.8 7.1-7.7 14.8-12.5 23.1-15.6-14.4 8-25.2 15.9-33.7 50.3 0 0 4.9-6.9 13.7-14.7-8.8 14.3-14.3 31.6-12.9 50.2 7.4-16.2 15.2-24.3 22.5-30.1-9.1 9.7-15.9 21.1-18.7 34.2-1.6 7.2 3.2 43-5 51.9 4.5-1.1 9-3.1 13.1-5.6-4.7 17.7-3.1 36.4 13.5 49.1-0.4-9.6-0.3-17.9 1-25.7-1.1 11.3 2.2 19.9 4.6 25.1 0-4.3 0.8-9.7 2.3-15.7-0.3 18.4 5.6 29.5 31 54 0 0-2.5-9.1-2.6-22.4 0.1 0 0.1 0.1 0.1 0.1 2.1 14.3 9.1 41.3 38.3 44.8-4.7-4.4-7.2-11.2-8-19.2 5.6 10.4 20.2 30.1 37.7 32-3.8-2.8-5.9-7.5-6.9-13.2 6.3 6.7 15.9 13.8 30.9 20.1-4-7.3 0.8-12 7.6-16.5 8.8 5 24.1 14.3 24.1 20.3 0 4.2 16.1-11.1 25.9-20.7 0.9-0.2 1.8-0.3 2.6-0.5 7.7 4.8 13.5 9.6 9.2 17.5 15-6.2 24.6-13.4 30.9-20.1-1 5.7-3.1 10.4-6.9 13.2 17.5-1.9 32.1-21.6 37.7-32-0.8 7.9-3.4 14.8-8 19.2 29.2-3.4 36.1-30.4 38.3-44.8 0.1 0 0.1-0.1 0.1-0.1-0.1 13.3-2.6 22.4-2.6 22.4 25.4-24.5 31.2-35.7 31-54 1.5 6 2.3 11.4 2.3 15.7 2.4-5.2 5.7-13.8 4.6-25.1 1.3 7.9 1.5 16.1 1 25.7 16.6-12.7 18.2-31.4 13.5-49.1 4.1 2.5 8.5 4.4 13.1 5.6zm-95.7-9.8c-12.5 15.4-30 26.7-50.5 31l-1 0.2c-28 5.9-56.9 5.9-84.9 0-20.9-4.4-38.9-15.8-51.6-31.6-12.7-15.7-20.2-35.8-20.2-57.3 0-30.7 12.3-58.5 32.3-78.6 3.8-3.9 7.9-7.4 12.2-10.7 12.9 6.8 27.8 9.6 42.3 7.7-8.6-3.3-15-9.7-20.1-17.4 2.1 0.4 4.2 0.7 6.3 1.1 15 2.8 37.8 6.2 48 18.7 0.8-5.7 0.4-11.9-1.9-17.5 17.3 5.4 34.2 12.5 45.7 21.1-1.2-8.6-4.4-15.9-8.8-22 9.6 6.8 18.9 16 27.8 28.2 2-6.9 1.6-13.3-0.5-19.2 27.2 20.6 44.7 53.3 44.7 90.1 0 21.2-7.4 40.8-19.8 56.2z" fill="#B9BCC0"/>
	<path d="m443.1 203.9c0 21.1-7.3 40.7-19.8 56.1s-30 26.7-50.5 31l-1 0.2c-28 5.9-56.9 5.9-84.9 0-20.9-4.4-38.9-15.8-51.6-31.6-12.7-15.7-20.2-35.8-20.2-57.3 0-30.7 12.3-58.5 32.3-78.6 3.8-3.9 7.9-7.4 12.2-10.7 12.9 6.8 27.8 9.6 42.3 7.7-8.6-3.3-15-9.7-20.1-17.4 2.1 0.4 4.2 0.7 6.3 1.1 15 2.8 37.8 6.2 48 18.7 0.8-5.7 0.4-11.9-1.9-17.5 17.3 5.4 34.2 12.5 45.7 21.1-1.2-8.6-4.4-15.9-8.8-22 9.6 6.8 18.9 16 27.8 28.2 2-6.9 1.6-13.3-0.5-19.2 27.1 20.6 44.7 53.3 44.7 90.2z" fill="#B9BCC0"/>
	<path d="m443.1 203.9c0 21.1-7.3 40.7-19.8 56.1s-30 26.7-50.5 31l-1 0.2c-28 5.9-56.9 5.9-84.9 0-20.9-4.4-38.9-15.8-51.6-31.6-12.7-15.7-20.2-35.8-20.2-57.3 0-30.7 12.3-58.5 32.3-78.6 3.8-3.9 7.9-7.4 12.2-10.7 12.9 6.8 27.8 9.6 42.3 7.7-8.6-3.3-15-9.7-20.1-17.4 2.1 0.4 4.2 0.7 6.3 1.1 15 2.8 37.8 6.2 48 18.7 0.8-5.7 0.4-11.9-1.9-17.5 17.3 5.4 34.2 12.5 45.7 21.1-1.2-8.6-4.4-15.9-8.8-22 9.6 6.8 18.9 16 27.8 28.2 2-6.9 1.6-13.3-0.5-19.2 27.1 20.6 44.7 53.3 44.7 90.2z" fill="#DADBDD"/>
	<g>
		<ellipse cx="271.5" cy="172.2" fill="#fff" rx="30.6" ry="34.4"/>
		<ellipse cx="278.4" cy="172.2" fill="#ACADAE" rx="18.9" ry="21.2"/>
		<g>
			<ellipse cx="386.6" cy="172.2" fill="#fff" rx="30.6" ry="34.4"/>
			<ellipse cx="379.6" cy="172.2" fill="#ACADAE" rx="18.9" ry="21.2"/>
		</g>
	</g>
	<path d="m359.2 220.4c0 14.9-13.9 31-31 31s-31-16.1-31-31l0.7 0.2c20.2 4.4 41.1 4.3 61.3-0.2z" fill="#ACADAE"/>
	<path d="m307.3 242.5c5.5 5.3 12.9 8.9 20.9 8.9 7.9 0 15.2-3.5 20.7-8.7-5.4-5.3-12.8-8.6-20.9-8.6s-15.3 3.2-20.7 8.4z" fill="#fff"/>
	<path d="m598.7 229.6c-2-2.7-5.3-4.3-7.9-6.3-4.7-3.6-7.5-7.7-10.7-12.5-1.5-2.3-2.6-3.8-3.4-4.9 0.2-0.1 0.5-0.2 0.7-0.3 1.1-0.6 2.2-1.3 3.1-2.1 1.6-1.3 3.1-2.9 3.6-5s-0.8-4.5-2.8-4.8c-0.5-0.1-1.1 0-1.6 0.3-0.3 0.2-0.6 0.6-0.8 1-0.8 1.4-1.3 2.9-2.1 4.3-1.7 2.9-4.6 4.7-7.6 6.3v-0.1l-76.4 28.5c-2 0.7-3.5 2.3-4.2 4.3-2.2 6 4.1 11.7 9.9 8.9l68.4-32.7c0.3 1.2 0.7 2.3 1.2 3.3 4.4 8.6 17.3 23.5 28.4 19.8 1.5-0.5 2.9-1.6 3.4-3.1 0.4-1.7-0.1-3.5-1.2-4.9z" fill="#DADBDD"/>
	<path d="m177.6 240.2c-4.5 2-4.3-2.8-11.5-0.7-11.3 3.3-24.1 6-32.6 6-13.5 0-25.4-3.2-34.9-9.2 5.2-1.5 11.2-3.2 12-3.5 1.3-0.5 2.5-1 3.7-1.5 5.7 1.8 12 2.8 19.1 2.8 8.1 0 21.8-3.1 33-6.6 5.3-1.6 3.8-3.3 7.2-4.8 2.9-1.3 2.7 0.3 4 3.2 1.2 2.8 2.9 13 0 14.3z" fill="#DADBDD"/>
	<path d="m275.7 366.2l12.2 79c-4.1-2.1-10-3.4-16.6-3.4-12 0-21.9 4.4-22.3 10 0 0.2 0.4 0.4 0.8 0.4h43.3c0.4 0 0.8-0.3 0.8-0.8l6.2-76.5-24.4-8.7z" fill="#DADBDD"/>
	<path d="m495.5 384.5c-4.2-3.6-14.3 0.2-22.8 8.7-4.6 4.6-7.9 9.8-9.3 14.1l-41-59.7-16.3 22 57.4 46.3c0.3 0.3 0.8 0.2 1.1-0.1l0.8-0.8 2-2 27.7-27.7c0.4-0.3 0.5-0.7 0.4-0.8z" fill="#DADBDD"/>
	<path d="m270.9 359.4s-5.2 15.2 6.8 22c0-0.3-3.3-9 1-14.1 0 0 3.4 17.5 11.7 19.5 0 0 3-13.1 12.7-12.1l-32.2-15.3z" fill="#B9BCC0"/>
	<path d="m424.2 341.3s-4.2 28.5-21.4 29.5l21.4-29.5z" fill="#B9BCC0"/>
</g>
</svg>